<svg width="28" height="29" viewBox="0 0 28 29" fill="none" xmlns="http://www.w3.org/2000/svg">
<mask id="path-1-inside-1_135_13" fill="white">
<path fill-rule="evenodd" clip-rule="evenodd" d="M1.47918 1.77208C0.307608 2.94365 0.307608 4.84315 1.47918 6.01472L9.96446 14.5L1.47918 22.9853C0.307608 24.1569 0.307608 26.0563 1.47918 27.2279C2.65075 28.3995 4.55025 28.3995 5.72182 27.2279L14.2071 18.7426L21.9853 26.5208C23.1568 27.6924 25.0563 27.6924 26.2279 26.5208C27.3995 25.3492 27.3995 23.4497 26.2279 22.2782L18.4497 14.5L26.2279 6.72183C27.3995 5.55025 27.3995 3.65076 26.2279 2.47918C25.0563 1.30761 23.1568 1.30761 21.9853 2.47918L14.2071 10.2574L5.72182 1.77208C4.55025 0.600505 2.65075 0.600505 1.47918 1.77208Z"/>
</mask>
<path fill-rule="evenodd" clip-rule="evenodd" d="M1.47918 1.77208C0.307608 2.94365 0.307608 4.84315 1.47918 6.01472L9.96446 14.5L1.47918 22.9853C0.307608 24.1569 0.307608 26.0563 1.47918 27.2279C2.65075 28.3995 4.55025 28.3995 5.72182 27.2279L14.2071 18.7426L21.9853 26.5208C23.1568 27.6924 25.0563 27.6924 26.2279 26.5208C27.3995 25.3492 27.3995 23.4497 26.2279 22.2782L18.4497 14.5L26.2279 6.72183C27.3995 5.55025 27.3995 3.65076 26.2279 2.47918C25.0563 1.30761 23.1568 1.30761 21.9853 2.47918L14.2071 10.2574L5.72182 1.77208C4.55025 0.600505 2.65075 0.600505 1.47918 1.77208Z" fill="#F9C290"/>
<path d="M9.96446 14.5L10.318 14.8536L10.6716 14.5L10.318 14.1464L9.96446 14.5ZM14.2071 18.7426L14.5607 18.3891L14.2071 18.0355L13.8535 18.3891L14.2071 18.7426ZM18.4497 14.5L18.0962 14.1464L17.7426 14.5L18.0962 14.8536L18.4497 14.5ZM14.2071 10.2574L13.8535 10.6109L14.2071 10.9645L14.5607 10.6109L14.2071 10.2574ZM1.83273 5.66117C0.856423 4.68485 0.856423 3.10194 1.83273 2.12563L1.12563 1.41852C-0.241208 2.78536 -0.241208 5.00144 1.12563 6.36827L1.83273 5.66117ZM10.318 14.1464L1.83273 5.66117L1.12563 6.36827L9.61091 14.8536L10.318 14.1464ZM1.83273 23.3388L10.318 14.8536L9.61091 14.1464L1.12563 22.6317L1.83273 23.3388ZM1.83273 26.8744C0.856423 25.8981 0.856423 24.3151 1.83273 23.3388L1.12563 22.6317C-0.241208 23.9986 -0.241208 26.2146 1.12563 27.5815L1.83273 26.8744ZM5.36827 26.8744C4.39196 27.8507 2.80905 27.8507 1.83273 26.8744L1.12563 27.5815C2.49246 28.9483 4.70854 28.9483 6.07537 27.5815L5.36827 26.8744ZM13.8535 18.3891L5.36827 26.8744L6.07537 27.5815L14.5607 19.0962L13.8535 18.3891ZM22.3388 26.1673L14.5607 18.3891L13.8535 19.0962L21.6317 26.8744L22.3388 26.1673ZM25.8744 26.1673C24.8981 27.1436 23.3151 27.1436 22.3388 26.1673L21.6317 26.8744C22.9986 28.2412 25.2146 28.2412 26.5815 26.8744L25.8744 26.1673ZM25.8744 22.6317C26.8507 23.608 26.8507 25.191 25.8744 26.1673L26.5815 26.8744C27.9483 25.5075 27.9483 23.2915 26.5815 21.9246L25.8744 22.6317ZM18.0962 14.8536L25.8744 22.6317L26.5815 21.9246L18.8033 14.1464L18.0962 14.8536ZM25.8744 6.36827L18.0962 14.1464L18.8033 14.8536L26.5815 7.07538L25.8744 6.36827ZM25.8744 2.83274C26.8507 3.80905 26.8507 5.39196 25.8744 6.36827L26.5815 7.07538C27.9483 5.70855 27.9483 3.49247 26.5815 2.12563L25.8744 2.83274ZM22.3388 2.83274C23.3151 1.85643 24.8981 1.85643 25.8744 2.83274L26.5815 2.12563C25.2146 0.758796 22.9986 0.758798 21.6317 2.12563L22.3388 2.83274ZM14.5607 10.6109L22.3388 2.83274L21.6317 2.12563L13.8535 9.90381L14.5607 10.6109ZM5.36827 2.12563L13.8535 10.6109L14.5607 9.90381L6.07537 1.41852L5.36827 2.12563ZM1.83273 2.12563C2.80905 1.14932 4.39196 1.14932 5.36827 2.12563L6.07537 1.41852C4.70854 0.0516899 2.49246 0.0516895 1.12563 1.41852L1.83273 2.12563Z" fill="#5C422B" mask="url(#path-1-inside-1_135_13)"/>
</svg>
