<svg width="41" height="41" viewBox="0 0 41 41" fill="none" xmlns="http://www.w3.org/2000/svg">
<path d="M17.3765 3.59639V17.4234L3.60814 17.4037C1.89606 17.4013 0.506153 18.7872 0.50371 20.4993C0.501267 22.2114 1.8872 23.6013 3.59928 23.6037L17.3765 23.6234V37.4036C17.3765 39.1137 18.7628 40.5 20.4729 40.5C22.183 40.5 23.5693 39.1137 23.5693 37.4036V23.6323L37.3451 23.652C39.0572 23.6544 40.4471 22.2685 40.4495 20.5564C40.4519 18.8443 39.066 17.4544 37.3539 17.452L23.5693 17.4323V3.59639C23.5693 1.8863 22.183 0.5 20.4729 0.5C18.7628 0.5 17.3765 1.8863 17.3765 3.59639Z" stroke="black"/>
</svg>
