<svg width="91" height="90" viewBox="0 0 91 90" fill="none" xmlns="http://www.w3.org/2000/svg">
<circle cx="45.9667" cy="45" r="45" fill="#F9C290"/>
<path fill-rule="evenodd" clip-rule="evenodd" d="M21.9667 28.5C21.9667 26.0147 23.9814 24 26.4667 24H65.4667C67.952 24 69.9667 26.0147 69.9667 28.5C69.9667 30.9853 67.952 33 65.4667 33H26.4667C23.9814 33 21.9667 30.9853 21.9667 28.5ZM21.9667 45C21.9667 42.5147 23.9814 40.5 26.4667 40.5H65.4667C67.952 40.5 69.9667 42.5147 69.9667 45C69.9667 47.4853 67.952 49.5 65.4667 49.5H26.4667C23.9814 49.5 21.9667 47.4853 21.9667 45ZM26.4667 57C23.9814 57 21.9667 59.0147 21.9667 61.5C21.9667 63.9853 23.9814 66 26.4667 66H65.4667C67.952 66 69.9667 63.9853 69.9667 61.5C69.9667 59.0147 67.952 57 65.4667 57H26.4667Z" fill="#7A5737"/>
</svg>
